# xmcd
#
# Track frame offsets: 
#        150
#        23082
#        45330
#        71900
#        101705
#        114135
#        136437
#        145857
#        164812
#        185145
#
# Disc length: 3533 seconds
#
# Revision: 0
# Processed by: cddbd v1.5.1PL0 Copyright (c) Steve Scherf et al.
# Submitted via: ExactAudioCopy v0.95b2
#
DISCID=900dcb0a
DTITLE=Erwin Thomas - Songs from my apartment
DYEAR=2005
DGENRE=Alt. Rock
TTITLE0=Inside a stormglass (the sailor's song)
TTITLE1=The horsekeeper
TTITLE2=Lostin2day
TTITLE3=Just a mess
TTITLE4=Far from home
TTITLE5=Tonight
TTITLE6=Ain't no hit
TTITLE7=In dreams
TTITLE8=Adult anxiety
TTITLE9=Keep on passing the open windows
EXTD=
EXTT0=
EXTT1=
EXTT2=
EXTT3=
EXTT4=
EXTT5=
EXTT6=
EXTT7=
EXTT8=
EXTT9=
PLAYORDER=
